<svg xmlns="http://www.w3.org/2000/svg" width="1002" height="300" viewBox="0 0 1002 300">
  <metadata><?xpacket begin="﻿" id="W5M0MpCehiHzreSzNTczkc9d"?>
<x:xmpmeta xmlns:x="adobe:ns:meta/" x:xmptk="Adobe XMP Core 5.6-c142 79.160924, 2017/07/13-01:06:39        ">
   <rdf:RDF xmlns:rdf="http://www.w3.org/1999/02/22-rdf-syntax-ns#">
      <rdf:Description rdf:about=""/>
   </rdf:RDF>
</x:xmpmeta>
                                                                                                    
                                                                                                    
                                                                                                    
                                                                                                    
                                                                                                    
                                                                                                    
                                                                                                    
                                                                                                    
                                                                                                    
                                                                                                    
                                                                                                    
                                                                                                    
                                                                                                    
                                                                                                    
                                                                                                    
                                                                                                    
                                                                                                    
                                                                                                    
                                                                                                    
                                                                                                    
                           
<?xpacket end="w"?></metadata>
<defs>
    <style>
      .cls-1 {
        fill: #fff;
        fill-rule: evenodd;
      }
    </style>
  </defs>
  <path class="cls-1" d="M191.237,72.438L164.868,26.7a45.331,45.331,0,0,0-61.887-16.678L7.909,64.991a11.356,11.356,0,0,0-4.13,15.5L75.8,205.423a11.32,11.32,0,0,0,15.472,4.169L186.34,154.62,175,134.946l-85.27,49.306L29.052,79l85.27-49.305a22.666,22.666,0,0,1,30.944,8.339l26.369,45.741L86.364,133.078l11.341,19.674,104.873-60.64a22.667,22.667,0,0,1,30.944,8.339l37.946,65.825a22.832,22.832,0,0,1-8.3,31.137L138.78,269.34,112.412,223.6l-19.6,11.334,32.04,55.578a11.32,11.32,0,0,0,15.472,4.17l134.194-77.594a45.571,45.571,0,0,0,16.557-62.146L253.125,89.117A45.332,45.332,0,0,0,191.237,72.438Z"/>
  <path id="BadINz" class="cls-1" d="M346,59.25V241h36.656c27.556,0,38.475-16.1,38.475-41.8V183.1c0-21.031-8.059-35.831-29.636-38.947,20.537-3.116,26-15.319,26-35.572V96.9c0-24.407-8.579-37.649-35.1-37.649H346Zm5.719,82.568V64.7H382.4c22.877,0,29.376,11.165,29.376,32.456v12.2c0,26.484-11.178,32.456-36.4,32.456H351.722Zm0,93.733v-88.54h26.257c24.957,0,37.436,9.607,37.436,35.832V199.2c0,22.849-8.839,36.351-32.756,36.351H351.722Zm182.487-37.389L544.868,241h5.72L505.613,58.991h-8.06L453.618,241h5.2l10.659-42.842h64.732ZM501.453,65.741l31.716,127.228H470.517ZM583.59,59.25V241h38.216c27.557,0,39.256-19.474,39.256-45.179V104.689c0-25.965-11.7-45.439-39.516-45.439H583.59Zm5.72,176.3V64.7h32.236c24.177,0,33.8,16.877,33.8,39.726v91.656c0,22.589-9.359,39.466-33.8,39.466H589.31ZM694.326,241h28.6V59.25h-28.6V241ZM817.8,241H847.18V59.25H821.7V168.043L792.327,59.25H756.451V241h25.737V109.362ZM878.883,59.25V85.215h51.734L876.283,215.558V241h83.711V215.039H905.66L959.994,84.7V59.25H878.883Z"/>
</svg>
