<svg xmlns="http://www.w3.org/2000/svg" width="300" height="450" viewBox="0 0 300 450">
  <metadata><?xpacket begin="﻿" id="W5M0MpCehiHzreSzNTczkc9d"?>
<x:xmpmeta xmlns:x="adobe:ns:meta/" x:xmptk="Adobe XMP Core 5.6-c142 79.160924, 2017/07/13-01:06:39        ">
   <rdf:RDF xmlns:rdf="http://www.w3.org/1999/02/22-rdf-syntax-ns#">
      <rdf:Description rdf:about=""/>
   </rdf:RDF>
</x:xmpmeta>
                                                                                                    
                                                                                                    
                                                                                                    
                                                                                                    
                                                                                                    
                                                                                                    
                                                                                                    
                                                                                                    
                                                                                                    
                                                                                                    
                                                                                                    
                                                                                                    
                                                                                                    
                                                                                                    
                                                                                                    
                                                                                                    
                                                                                                    
                                                                                                    
                                                                                                    
                                                                                                    
                           
<?xpacket end="w"?></metadata>
<defs>
    <style>
      .cls-1 {
        fill: #fff;
        fill-rule: evenodd;
      }
    </style>
  </defs>
  <path class="cls-1" d="M191.237,74.438L164.868,28.7a45.331,45.331,0,0,0-61.887-16.678L7.909,66.991a11.356,11.356,0,0,0-4.13,15.5L75.8,207.423a11.32,11.32,0,0,0,15.472,4.169L186.34,156.62,175,136.946l-85.27,49.306L29.052,81l85.27-49.305a22.666,22.666,0,0,1,30.944,8.339l26.369,45.741L86.364,135.078l11.341,19.674,104.873-60.64a22.667,22.667,0,0,1,30.944,8.339l37.946,65.825a22.832,22.832,0,0,1-8.3,31.137L138.78,271.34,112.412,225.6l-19.6,11.334,32.04,55.578a11.32,11.32,0,0,0,15.472,4.17l134.194-77.594a45.571,45.571,0,0,0,16.557-62.146L253.125,91.117A45.332,45.332,0,0,0,191.237,74.438Z"/>
  <path id="BadINz" class="cls-1" d="M6.238,358.243v85.772H23.521c12.993,0,18.141-7.6,18.141-19.728v-7.6c0-9.925-3.8-16.909-13.973-18.379,9.683-1.471,12.257-7.23,12.257-16.787V376.01c0-11.518-4.045-17.767-16.547-17.767H6.238Zm2.7,38.965V360.816H23.4c10.787,0,13.851,5.269,13.851,15.317v5.759c0,12.5-5.271,15.316-17.16,15.316H8.935Zm0,44.234V399.659h12.38c11.767,0,17.651,4.533,17.651,16.909v7.719c0,10.783-4.168,17.155-15.444,17.155H8.935ZM94.976,423.8L100,444.015h2.7L81.493,358.121h-3.8L56.978,444.015h2.452L64.455,423.8H94.976ZM79.532,361.306l14.954,60.041H64.945Zm38.727-3.063v85.772h18.019c12.993,0,18.508-9.19,18.508-21.321V379.686c0-12.253-5.515-21.443-18.631-21.443h-17.9Zm2.7,83.2V360.816h15.2c11.4,0,15.935,7.965,15.935,18.747v43.254c0,10.66-4.413,18.625-15.935,18.625h-15.2Zm49.514,2.573h13.483V358.243H170.469v85.772Zm58.219,0h13.851V358.243H230.526v51.341l-13.851-51.341H199.76v85.772H211.9V381.892Zm28.8-85.772V370.5h24.392L256.26,432.007v12.008h39.469V431.762H270.111l25.618-61.511V358.243H257.486Z"/>
</svg>
